<?xml version="1.0" encoding="UTF-8"?>
<svg width="477px" height="128px" viewBox="0 0 477 128" version="1.1" xmlns="http://www.w3.org/2000/svg" xmlns:xlink="http://www.w3.org/1999/xlink">
    <!-- Generator: Sketch 40.3 (33839) - http://www.bohemiancoding.com/sketch -->
    <title>Cocolsillo</title>
    <desc>Created with Sketch.</desc>
    <defs></defs>
    <g id="Page-1" stroke="none" stroke-width="1" fill="none" fill-rule="evenodd">
        <g id="crocodile">
            <g id="Group">
                <circle id="Oval" fill="#2D4452" cx="64" cy="64" r="64"></circle>
                <path d="M120.516,94.039 C120.495,93.997 120.485,93.943 120.461,93.904 C120.397,93.677 120.316,93.469 120.213,93.291 C120.149,93.064 120.068,92.855 119.965,92.676 C119.901,92.45 119.82,92.242 119.717,92.063 C119.653,91.836 119.573,91.628 119.469,91.449 C119.405,91.223 119.325,91.014 119.221,90.836 C119.158,90.608 119.077,90.401 118.973,90.221 C118.91,89.994 118.829,89.785 118.725,89.605 C118.661,89.379 118.58,89.171 118.477,88.994 C118.413,88.767 118.332,88.56 118.229,88.381 C118.165,88.154 118.084,87.945 117.981,87.766 C117.917,87.54 117.836,87.332 117.733,87.153 C117.669,86.926 117.588,86.718 117.485,86.54 C117.421,86.313 117.34,86.104 117.237,85.925 C117.173,85.698 117.092,85.491 116.989,85.312 C116.925,85.085 116.844,84.877 116.741,84.697 C116.677,84.471 116.596,84.263 116.493,84.085 C116.429,83.857 116.348,83.65 116.245,83.47 C116.181,83.244 116.1,83.035 115.997,82.858 C115.933,82.63 115.852,82.422 115.749,82.243 C115.685,82.016 115.604,81.808 115.501,81.63 C115.437,81.401 115.356,81.192 115.252,81.013 C115.189,80.788 115.108,80.581 115.004,80.402 C114.941,80.175 114.86,79.967 114.756,79.787 C114.693,79.561 114.612,79.353 114.508,79.175 C114.445,78.947 114.364,78.74 114.26,78.56 C114.197,78.334 114.116,78.126 114.012,77.948 C113.949,77.72 113.868,77.512 113.765,77.334 C113.701,77.106 113.62,76.899 113.517,76.719 C113.453,76.493 113.372,76.284 113.269,76.106 C113.205,75.879 113.124,75.671 113.021,75.492 C112.957,75.265 112.876,75.057 112.773,74.879 C112.709,74.652 112.628,74.443 112.525,74.264 C112.461,74.037 112.38,73.83 112.277,73.651 C112.213,73.424 112.132,73.216 112.029,73.036 C111.965,72.809 111.884,72.6 111.779,72.421 C111.716,72.194 111.635,71.987 111.531,71.809 C111.468,71.583 111.387,71.374 111.283,71.197 C111.22,70.969 111.14,70.761 111.036,70.582 C110.972,70.355 110.892,70.147 110.788,69.969 C110.725,69.742 110.644,69.533 110.54,69.354 C110.477,69.127 110.396,68.92 110.292,68.741 C110.229,68.514 110.148,68.306 110.044,68.126 C109.981,67.9 109.9,67.692 109.796,67.514 C109.733,67.286 109.652,67.079 109.548,66.9 C109.485,66.673 109.404,66.464 109.3,66.285 C109.237,66.059 109.156,65.851 109.052,65.672 C108.989,65.445 108.908,65.237 108.804,65.058 C108.741,64.83 108.658,64.621 108.555,64.442 C108.491,64.216 108.411,64.009 108.307,63.83 C108.244,63.604 108.163,63.396 108.059,63.217 C107.996,62.99 107.915,62.782 107.811,62.602 C107.748,62.376 107.667,62.168 107.563,61.989 C107.5,61.762 107.419,61.554 107.315,61.374 C107.252,61.148 107.171,60.94 107.067,60.761 C107.004,60.533 106.923,60.326 106.819,60.146 C106.756,59.92 106.675,59.712 106.571,59.533 C106.508,59.306 106.427,59.098 106.323,58.918 C106.26,58.692 106.179,58.484 106.075,58.305 C106.012,58.078 105.931,57.87 105.828,57.69 C105.764,57.464 105.684,57.256 105.58,57.077 C105.517,56.85 105.436,56.642 105.332,56.463 C105.269,56.235 105.188,56.026 105.083,55.846 C105.019,55.621 104.938,55.414 104.835,55.235 C104.771,55.008 104.69,54.8 104.587,54.62 C104.523,54.394 104.442,54.186 104.339,54.007 C104.275,53.78 104.194,53.572 104.091,53.392 C104.027,53.166 103.946,52.958 103.843,52.779 C103.527,51.66 102.714,51.129 101.417,51.038 C101.353,50.854 101.276,50.672 101.19,50.49 C101.121,50.284 101.039,50.078 100.942,49.874 C100.872,49.669 100.79,49.465 100.694,49.262 C99.967,47.14 97.899,45.014 94.003,45.014 C89.003,45.014 87.003,48.014 87.003,51.014 L48.785,51.014 C48.756,50.943 48.72,50.877 48.689,50.807 C48.615,50.598 48.531,50.396 48.443,50.198 C48.368,49.987 48.283,49.783 48.194,49.583 C48.119,49.373 48.035,49.17 47.946,48.97 C47.871,48.759 47.786,48.555 47.697,48.355 C47.622,48.145 47.538,47.942 47.449,47.742 C45.792,43.06 40.615,41 36,41 C28,41 24,46.104 24,51 L24,84 C24,84.551 24.163,85.098 24.425,85.607 C24.491,85.816 24.571,86.021 24.674,86.222 C24.74,86.431 24.819,86.635 24.922,86.834 C24.988,87.044 25.068,87.25 25.171,87.449 C25.237,87.658 25.316,87.863 25.419,88.061 C25.485,88.272 25.565,88.479 25.669,88.678 C25.735,88.887 25.814,89.091 25.916,89.289 C25.982,89.498 26.062,89.704 26.164,89.903 C26.23,90.113 26.31,90.319 26.413,90.517 C26.479,90.726 26.558,90.931 26.661,91.13 C26.727,91.34 26.807,91.545 26.91,91.745 C26.976,91.954 27.055,92.159 27.158,92.358 C27.224,92.568 27.304,92.774 27.407,92.973 C27.473,93.182 27.552,93.387 27.655,93.585 C27.721,93.795 27.801,94 27.904,94.2 C27.97,94.409 28.049,94.614 28.152,94.812 C28.218,95.023 28.298,95.228 28.401,95.427 C28.467,95.636 28.546,95.841 28.649,96.04 C28.715,96.25 28.795,96.455 28.898,96.655 C28.964,96.865 29.044,97.071 29.147,97.27 C29.213,97.479 29.293,97.684 29.395,97.883 C29.461,98.092 29.54,98.297 29.643,98.495 C29.709,98.705 29.789,98.91 29.892,99.11 C29.958,99.319 30.037,99.524 30.14,99.722 C30.206,99.931 30.286,100.138 30.388,100.336 C30.454,100.546 30.534,100.752 30.637,100.951 C30.703,101.16 30.782,101.365 30.885,101.564 C30.951,101.774 31.031,101.979 31.134,102.178 C31.2,102.387 31.279,102.592 31.382,102.791 C31.448,103.001 31.528,103.207 31.631,103.406 C31.697,103.615 31.776,103.82 31.879,104.019 C31.945,104.229 32.025,104.433 32.128,104.634 C32.194,104.843 32.274,105.05 32.377,105.248 C32.443,105.457 32.523,105.662 32.625,105.861 C32.691,106.07 32.77,106.275 32.873,106.473 C32.939,106.684 33.019,106.889 33.122,107.088 C33.188,107.297 33.267,107.502 33.37,107.701 C33.436,107.911 33.516,108.117 33.619,108.316 C33.685,108.525 33.764,108.73 33.867,108.929 C33.933,109.138 34.013,109.343 34.116,109.544 C34.182,109.753 34.261,109.957 34.364,110.156 C34.43,110.365 34.51,110.571 34.612,110.77 C34.678,110.98 34.758,111.186 34.861,111.385 C34.927,111.594 35.006,111.799 35.109,111.997 C35.175,112.207 35.255,112.412 35.358,112.612 C35.424,112.821 35.503,113.026 35.606,113.224 C35.672,113.435 35.752,113.642 35.856,113.841 C35.922,114.05 36.001,114.255 36.103,114.452 C36.169,114.662 36.249,114.867 36.352,115.067 C36.418,115.276 36.497,115.481 36.6,115.68 C36.666,115.889 36.746,116.096 36.849,116.295 C36.915,116.504 36.994,116.709 37.097,116.907 C37.163,117.117 37.243,117.322 37.346,117.522 C37.412,117.731 37.491,117.936 37.594,118.134 C37.66,118.345 37.74,118.55 37.843,118.749 C37.909,118.958 37.988,119.163 38.091,119.362 C38.157,119.571 38.237,119.777 38.339,119.976 C38.405,120.186 38.485,120.391 38.588,120.59 C38.654,120.799 38.733,121.004 38.836,121.203 C38.902,121.414 38.982,121.619 39.085,121.818 C39.151,122.028 39.231,122.234 39.334,122.433 C39.4,122.642 39.48,122.847 39.582,123.046 C39.594,123.083 39.614,123.117 39.626,123.154 C47.123,126.277 55.359,128 64,128 C88.486,128 109.754,114.242 120.516,94.039 L120.516,94.039 Z" id="Shape" fill="#233540"></path>
                <path d="M91.5,70.25 C90.118,70.25 89,69.132 89,67.75 L89,62.75 C89,61.368 90.118,60.25 91.5,60.25 C92.882,60.25 94,61.368 94,62.75 L94,67.75 C94,69.132 92.882,70.25 91.5,70.25 L91.5,70.25 Z" id="Shape" fill="#E6E6E6"></path>
                <path d="M83.5,77.75 C82.118,77.75 81,76.632 81,75.25 L81,70.25 C81,68.868 82.118,67.75 83.5,67.75 C84.882,67.75 86,68.868 86,70.25 L86,75.25 C86,76.632 84.882,77.75 83.5,77.75 L83.5,77.75 Z" id="Shape" fill="#E6E6E6"></path>
                <path d="M24,51 C24,46.104 28,41 36,41 C41.581,41 48,44 48,51 L87,51 C87,48 89,45 94,45 C99,45 101,48.5 101,51 C103,51 104,51.87 104,54.032 C104,61.532 98.792,66 92,66 L61,66 L54,73 L86.5,73 C92.926,73 99,79.074 99,85.5 C99,86.882 97.882,88 96.5,88 L28,88 C26,88 24,86 24,84 L24,51 L24,51 Z" id="Shape" fill="#48B3A0"></path>
                <g transform="translate(34.000000, 41.000000)" id="Shape" fill="#3E9989">
                    <path d="M11,10 L14,10 C14,3 7.581,0 2,0 C1.457,0 0.936,0.028 0.43,0.073 C5.621,0.544 11,3.592 11,10 L11,10 Z"></path>
                    <polygon points="17 32 20 32 27 25 24 25"></polygon>
                    <path d="M67,10 C67,7.5 65,4 60,4 C59.439,4 58.923,4.043 58.437,4.114 C62.381,4.716 64,7.757 64,10 C66,10 67,10.87 67,13.032 C67,20.532 61.792,25 55,25 L58,25 C64.792,25 70,20.532 70,13.032 C70,10.87 69,10 67,10 L67,10 Z"></path>
                    <path d="M52.5,32 L49.5,32 C55.926,32 62,38.074 62,44.5 C62,45.882 60.882,47 59.5,47 L62.5,47 C63.882,47 65,45.882 65,44.5 C65,38.074 58.926,32 52.5,32 L52.5,32 Z"></path>
                </g>
                <circle id="Oval" fill="#E6E6E6" cx="36" cy="53" r="5"></circle>
                <circle id="Oval" fill="#263740" cx="36" cy="53" r="3"></circle>
                <circle id="Oval" fill="#3E9989" cx="94" cy="53" r="3"></circle>
            </g>
        </g>
        <path d="M174.72,69.528 L175.152,69.24 C176.784008,68.2799952 177.935997,67.8 178.608,67.8 C180.096007,67.8 181.703991,69.1439866 183.432,71.832 C184.488005,73.5120084 185.016,74.8799947 185.016,75.936 C185.016,76.8960048 184.692003,77.7119966 184.044,78.384 C183.395997,79.0560034 182.424006,79.7759962 181.128,80.544 C180.695998,80.8320014 180.084004,81.2159976 179.292,81.696 C178.499996,82.1760024 176.880012,82.7999962 174.432,83.568 C171.983988,84.3360038 169.536012,84.72 167.088,84.72 C164.975989,84.72 162.756012,84.420003 160.428,83.82 C158.099988,83.219997 155.700012,82.2120071 153.228,80.796 C150.755988,79.3799929 148.53601,77.6520102 146.568,75.612 C144.59999,73.5719898 142.980006,70.956016 141.708,67.764 C140.435994,64.571984 139.8,61.080019 139.8,57.288 C139.8,53.5919815 140.423994,50.2200152 141.672,47.172 C142.920006,44.1239848 144.51599,41.60401 146.46,39.612 C148.40401,37.61999 150.623988,35.9400068 153.12,34.572 C155.616012,33.2039932 158.051988,32.220003 160.428,31.62 C162.804012,31.019997 165.095989,30.72 167.304,30.72 C169.560011,30.72 171.851988,31.0679965 174.18,31.764 C176.508012,32.4600035 178.271994,33.1679964 179.472,33.888 L181.2,34.896 C182.064004,35.4240026 182.723998,35.8679982 183.18,36.228 C183.636002,36.5880018 184.067998,37.0799969 184.476,37.704 C184.884002,38.3280031 185.088,38.9999964 185.088,39.72 C185.088,40.920006 184.584005,42.215993 183.576,43.608 C181.703991,46.200013 180.024007,47.496 178.536,47.496 C177.671996,47.496 176.448008,46.9680053 174.864,45.912 C172.84799,44.2799918 170.160017,43.464 166.8,43.464 C165.311993,43.464 163.776008,43.7399972 162.192,44.292 C160.607992,44.8440028 159.084007,45.6479947 157.62,46.704 C156.155993,47.7600053 154.944005,49.2479904 153.984,51.168 C153.023995,53.0880096 152.544,55.247988 152.544,57.648 C152.544,60.0960122 153.023995,62.2799904 153.984,64.2 C154.944005,66.1200096 156.167993,67.6199946 157.656,68.7 C159.144007,69.7800054 160.679992,70.5839974 162.264,71.112 C163.848008,71.6400026 165.359993,71.904 166.8,71.904 C168.288007,71.904 169.691993,71.7120019 171.012,71.328 C172.332007,70.9439981 173.279997,70.5600019 173.856,70.176 L174.72,69.528 Z M208.416,45.192 C213.696026,45.192 218.32798,47.0519814 222.312,50.772 C226.29602,54.4920186 228.288,59.2319712 228.288,64.992 C228.288,68.9760199 227.25601,72.5159845 225.192,75.612 C223.12799,78.7080155 220.620015,80.9879927 217.668,82.452 C214.715985,83.9160073 211.680016,84.648 208.56,84.648 C205.343984,84.648 202.248015,83.8680078 199.272,82.308 C196.295985,80.7479922 193.78801,78.4440152 191.748,75.396 C189.70799,72.3479848 188.688,68.9040192 188.688,65.064 C188.688,59.3039712 190.70398,54.5520187 194.736,50.808 C198.76802,47.0639813 203.327975,45.192 208.416,45.192 L208.416,45.192 Z M208.416,71.976 C210.000008,71.976 211.583992,71.376006 213.168,70.176 C214.752008,68.975994 215.544,67.2000118 215.544,64.848 C215.544,62.4959882 214.800007,60.7440058 213.312,59.592 C211.823993,58.4399942 210.168009,57.864 208.344,57.864 C206.711992,57.864 205.152007,58.463994 203.664,59.664 C202.175993,60.864006 201.432,62.6159885 201.432,64.92 C201.432,67.2720118 202.199992,69.0359941 203.736,70.212 C205.272008,71.3880059 206.831992,71.976 208.416,71.976 L208.416,71.976 Z M255,70.32 C256.584008,69.311995 257.783996,68.808 258.6,68.808 C260.040007,68.808 261.79199,70.0799873 263.856,72.624 C264.960006,74.016007 265.512,75.2639945 265.512,76.368 C265.512,78.1920091 264.192013,79.8959921 261.552,81.48 C258.815986,83.4000096 255.45602,84.36 251.472,84.36 C249.311989,84.36 247.116011,83.9400042 244.884,83.1 C242.651989,82.2599958 240.55201,81.0720077 238.584,79.536 C236.61599,77.9999923 235.008006,75.9480128 233.76,73.38 C232.511994,70.8119872 231.888,67.9680156 231.888,64.848 C231.888,61.7759846 232.511994,58.9800126 233.76,56.46 C235.008006,53.9399874 236.60399,51.9120077 238.548,50.376 C240.49201,48.8399923 242.579989,47.6640041 244.812,46.848 C247.044011,46.0319959 249.215989,45.624 251.328,45.624 C253.152009,45.624 254.927991,45.8759975 256.656,46.38 C258.384009,46.8840025 259.655996,47.3759976 260.472,47.856 L261.624,48.576 C262.488004,49.1520029 263.147998,49.6079983 263.604,49.944 C264.060002,50.2800017 264.491998,50.747997 264.9,51.348 C265.308002,51.948003 265.512,52.6079964 265.512,53.328 C265.512,54.4800058 265.008005,55.8239923 264,57.36 C262.271991,60.0000132 260.616008,61.32 259.032,61.32 C258.119995,61.32 256.824008,60.7920053 255.144,59.736 C254.279996,58.9199959 253.008008,58.512 251.328,58.512 C249.791992,58.512 248.328007,59.0879942 246.936,60.24 C245.543993,61.3920058 244.848,62.9759899 244.848,64.992 C244.848,67.0560103 245.519993,68.6519944 246.864,69.78 C248.208007,70.9080056 249.647992,71.472 251.184,71.472 C251.952004,71.472 252.647997,71.376001 253.272,71.184 C253.896003,70.991999 254.327999,70.800001 254.568,70.608 L255,70.32 Z M288.84,45.192 C294.120026,45.192 298.75198,47.0519814 302.736,50.772 C306.72002,54.4920186 308.712,59.2319712 308.712,64.992 C308.712,68.9760199 307.68001,72.5159845 305.616,75.612 C303.55199,78.7080155 301.044015,80.9879927 298.092,82.452 C295.139985,83.9160073 292.104016,84.648 288.984,84.648 C285.767984,84.648 282.672015,83.8680078 279.696,82.308 C276.719985,80.7479922 274.21201,78.4440152 272.172,75.396 C270.13199,72.3479848 269.112,68.9040192 269.112,65.064 C269.112,59.3039712 271.12798,54.5520187 275.16,50.808 C279.19202,47.0639813 283.751975,45.192 288.84,45.192 L288.84,45.192 Z M288.84,71.976 C290.424008,71.976 292.007992,71.376006 293.592,70.176 C295.176008,68.975994 295.968,67.2000118 295.968,64.848 C295.968,62.4959882 295.224007,60.7440058 293.736,59.592 C292.247993,58.4399942 290.592009,57.864 288.768,57.864 C287.135992,57.864 285.576007,58.463994 284.088,59.664 C282.599993,60.864006 281.856,62.6159885 281.856,64.92 C281.856,67.2720118 282.623992,69.0359941 284.16,70.212 C285.696008,71.3880059 287.255992,71.976 288.84,71.976 L288.84,71.976 Z M313.392,34.536 C313.392,33.4319945 313.428,32.6040028 313.5,32.052 C313.572,31.4999972 313.787998,30.8640036 314.148,30.144 C314.508002,29.4239964 315.143995,28.9200014 316.056,28.632 C316.968005,28.3439986 318.191992,28.2 319.728,28.2 C321.216007,28.2 322.403996,28.3559984 323.292,28.668 C324.180004,28.9800016 324.815998,29.4839965 325.2,30.18 C325.584002,30.8760035 325.812,31.5119971 325.884,32.088 C325.956,32.6640029 325.992,33.5039945 325.992,34.608 L325.992,67.944 C325.992,69.6720086 326.135999,70.7639977 326.424,71.22 C326.712001,71.6760023 327.503994,71.904 328.8,71.904 C329.472003,71.904 329.975998,71.9399996 330.312,72.012 C330.648002,72.0840004 331.067997,72.2879983 331.572,72.624 C332.076003,72.9600017 332.435999,73.5479958 332.652,74.388 C332.868001,75.2280042 332.976,76.343993 332.976,77.736 C332.976,79.2240074 332.868001,80.4239954 332.652,81.336 C332.435999,82.2480046 332.076003,82.8839982 331.572,83.244 C331.067997,83.6040018 330.636002,83.8199996 330.276,83.892 C329.915998,83.9640004 329.400003,84 328.728,84 C326.183987,84 324.144008,83.904001 322.608,83.712 C321.071992,83.519999 319.644007,83.1480028 318.324,82.596 C317.003993,82.0439972 316.020003,81.1920058 315.372,80.04 C314.723997,78.8879942 314.232002,77.4240089 313.896,75.648 C313.559998,73.8719911 313.392,71.5920139 313.392,68.808 L313.392,34.536 Z M350.904,84.648 C346.055976,84.648 341.496021,83.3040134 337.224,80.616 C336.311995,80.0399971 335.856,79.2000055 335.856,78.096 C335.856,76.703993 336.767991,74.7360127 338.592,72.192 C339.120003,71.3759959 339.935994,70.968 341.04,70.968 C342.288006,70.968 343.751992,71.471995 345.432,72.48 C347.784012,73.8240067 349.775992,74.496 351.408,74.496 C354.336015,74.496 355.8,73.9200058 355.8,72.768 C355.8,72.2879976 355.344005,71.8800017 354.432,71.544 C353.519995,71.2079983 352.368007,70.944001 350.976,70.752 C349.583993,70.559999 348.084008,70.164003 346.476,69.564 C344.867992,68.963997 343.368007,68.2320043 341.976,67.368 C340.583993,66.5039957 339.432005,65.1480092 338.52,63.3 C337.607995,61.4519908 337.152,59.2560127 337.152,56.712 C337.152,49.1279621 342.359948,45.336 352.776,45.336 C356.184017,45.336 359.687982,46.1519918 363.288,47.784 C364.968008,48.5520038 365.808,49.6079933 365.808,50.952 C365.808,51.9120048 365.304005,53.2079918 364.296,54.84 C363.191994,56.5680086 362.088006,57.432 360.984,57.432 C360.407997,57.432 359.592005,57.1920024 358.536,56.712 C356.47199,55.7519952 354.528009,55.272 352.704,55.272 C349.871986,55.272 348.456,55.7999947 348.456,56.856 C348.456,57.6240038 348.923995,58.2359977 349.86,58.692 C350.796005,59.1480023 351.971993,59.4599992 353.388,59.628 C354.804007,59.7960008 356.327992,60.1199976 357.96,60.6 C359.592008,61.0800024 361.115993,61.6679965 362.532,62.364 C363.948007,63.0600035 365.123995,64.2359917 366.06,65.892 C366.996005,67.5480083 367.464,69.575988 367.464,71.976 C367.464,74.568013 366.996005,76.7399912 366.06,78.492 C365.123995,80.2440088 363.804009,81.5399958 362.1,82.38 C360.395991,83.2200042 358.668009,83.8079983 356.916,84.144 C355.163991,84.4800017 353.160011,84.648 350.904,84.648 L350.904,84.648 Z M372.144,52.392 C372.144,51.2879945 372.18,50.4600028 372.252,49.908 C372.324,49.3559972 372.539998,48.7320035 372.9,48.036 C373.260002,47.3399965 373.895995,46.8480014 374.808,46.56 C375.720005,46.2719986 376.943992,46.128 378.48,46.128 C379.680006,46.128 380.699996,46.2479988 381.54,46.488 C382.380004,46.7280012 383.003998,47.0159983 383.412,47.352 C383.820002,47.6880017 384.131999,48.1799968 384.348,48.828 C384.564001,49.4760032 384.684,50.0279977 384.708,50.484 C384.732,50.9400023 384.744,51.6239954 384.744,52.536 L384.744,77.736 C384.744,78.8400055 384.708,79.6679972 384.636,80.22 C384.564,80.7720028 384.348002,81.3959965 383.988,82.092 C383.627998,82.7880035 382.992005,83.2799986 382.08,83.568 C381.167995,83.8560014 379.944008,84 378.408,84 C376.919993,84 375.720005,83.8560014 374.808,83.568 C373.895995,83.2799986 373.260002,82.7760036 372.9,82.056 C372.539998,81.3359964 372.324,80.7120026 372.252,80.184 C372.18,79.6559974 372.144,78.8160058 372.144,77.664 L372.144,52.392 Z M378.408,40.944 C376.919993,40.944 375.720005,40.8000014 374.808,40.512 C373.895995,40.2239986 373.260002,39.7200036 372.9,39 C372.539998,38.2799964 372.324,37.6440028 372.252,37.092 C372.18,36.5399972 372.144,35.7120055 372.144,34.608 C372.144,33.5039945 372.18,32.6760028 372.252,32.124 C372.324,31.5719972 372.539998,30.9480035 372.9,30.252 C373.260002,29.5559965 373.895995,29.0640014 374.808,28.776 C375.720005,28.4879986 376.943992,28.344 378.48,28.344 C379.968007,28.344 381.167995,28.4879986 382.08,28.776 C382.992005,29.0640014 383.627998,29.5679964 383.988,30.288 C384.348002,31.0080036 384.564,31.6439972 384.636,32.196 C384.708,32.7480028 384.744,33.5759945 384.744,34.68 C384.744,35.7840055 384.708,36.6119972 384.636,37.164 C384.564,37.7160028 384.348002,38.3399965 383.988,39.036 C383.627998,39.7320035 382.992005,40.2239986 382.08,40.512 C381.167995,40.8000014 379.944008,40.944 378.408,40.944 L378.408,40.944 Z M403.752,71.256 C405.336008,71.256 406.511996,71.6639959 407.28,72.48 C408.048004,73.2960041 408.432,74.999987 408.432,77.592 C408.432,80.0880125 408.024004,81.7559958 407.208,82.596 C406.391996,83.4360042 405.216008,83.856 403.68,83.856 C398.831976,83.856 395.42401,82.6920116 393.456,80.364 C391.48799,78.0359884 390.504,74.1600271 390.504,68.736 L390.504,34.392 C390.504,33.2879945 390.54,32.4600028 390.612,31.908 C390.684,31.3559972 390.899998,30.7320035 391.26,30.036 C391.620002,29.3399965 392.255995,28.8480014 393.168,28.56 C394.080005,28.2719986 395.303992,28.128 396.84,28.128 C398.328007,28.128 399.515996,28.2839984 400.404,28.596 C401.292004,28.9080016 401.927998,29.4119965 402.312,30.108 C402.696002,30.8040035 402.924,31.4279972 402.996,31.98 C403.068,32.5320028 403.104,33.3599945 403.104,34.464 L403.104,69.024 C403.104,70.5120074 403.319998,71.256 403.752,71.256 L403.752,71.256 Z M425.352,71.256 C427.41601,71.256 428.975995,71.6639959 430.032,72.48 C431.088005,73.2960041 431.616,74.999987 431.616,77.592 C431.616,80.0880125 431.052006,81.7559958 429.924,82.596 C428.795994,83.4360042 427.22401,83.856 425.208,83.856 C415.031949,83.856 409.944,78.8160504 409.944,68.736 L409.872,34.392 C409.872,33.2879945 409.908,32.4600028 409.98,31.908 C410.052,31.3559972 410.279998,30.7320035 410.664,30.036 C411.048002,29.3399965 411.695995,28.8480014 412.608,28.56 C413.520005,28.2719986 414.743992,28.128 416.28,28.128 C417.768007,28.128 418.955996,28.2839984 419.844,28.596 C420.732004,28.9080016 421.355998,29.4119965 421.716,30.108 C422.076002,30.8040035 422.304,31.4399971 422.4,32.016 C422.496,32.5920029 422.544,33.4079947 422.544,34.464 L422.544,69.024 C422.544,69.9360046 422.735998,70.5359986 423.12,70.824 C423.504002,71.1120014 424.247994,71.256 425.352,71.256 L425.352,71.256 Z M454.224,45.192 C459.504026,45.192 464.13598,47.0519814 468.12,50.772 C472.10402,54.4920186 474.096,59.2319712 474.096,64.992 C474.096,68.9760199 473.06401,72.5159845 471,75.612 C468.93599,78.7080155 466.428015,80.9879927 463.476,82.452 C460.523985,83.9160073 457.488016,84.648 454.368,84.648 C451.151984,84.648 448.056015,83.8680078 445.08,82.308 C442.103985,80.7479922 439.59601,78.4440152 437.556,75.396 C435.51599,72.3479848 434.496,68.9040192 434.496,65.064 C434.496,59.3039712 436.51198,54.5520187 440.544,50.808 C444.57602,47.0639813 449.135975,45.192 454.224,45.192 L454.224,45.192 Z M454.224,71.976 C455.808008,71.976 457.391992,71.376006 458.976,70.176 C460.560008,68.975994 461.352,67.2000118 461.352,64.848 C461.352,62.4959882 460.608007,60.7440058 459.12,59.592 C457.631993,58.4399942 455.976009,57.864 454.152,57.864 C452.519992,57.864 450.960007,58.463994 449.472,59.664 C447.983993,60.864006 447.24,62.6159885 447.24,64.92 C447.24,67.2720118 448.007992,69.0359941 449.544,70.212 C451.080008,71.3880059 452.639992,71.976 454.224,71.976 L454.224,71.976 Z" id="Cocolsillo" fill="#233540"></path>
    </g>
</svg>