<svg xmlns="http://www.w3.org/2000/svg" width="477" height="128" viewBox="0 0 477 128" version="1.1"><g stroke="none" stroke-width="1" fill="none" fill-rule="evenodd"><circle fill="#2D4452" cx="64" cy="64" r="64"/><path d="M120.52 94.04C120.5 94 120.49 93.94 120.46 93.9 120.4 93.68 120.32 93.47 120.21 93.29 120.15 93.06 120.07 92.86 119.97 92.68 119.9 92.45 119.82 92.24 119.72 92.06 119.65 91.84 119.57 91.63 119.47 91.45 119.41 91.22 119.33 91.01 119.22 90.84 119.16 90.61 119.08 90.4 118.97 90.22 118.91 89.99 118.83 89.79 118.73 89.61 118.66 89.38 118.58 89.17 118.48 88.99 118.41 88.77 118.33 88.56 118.23 88.38 118.17 88.15 118.08 87.95 117.98 87.77 117.92 87.54 117.84 87.33 117.73 87.15 117.67 86.93 117.59 86.72 117.49 86.54 117.42 86.31 117.34 86.1 117.24 85.93 117.17 85.7 117.09 85.49 116.99 85.31 116.93 85.09 116.84 84.88 116.74 84.7 116.68 84.47 116.6 84.26 116.49 84.09 116.43 83.86 116.35 83.65 116.25 83.47 116.18 83.24 116.1 83.04 116 82.86 115.93 82.63 115.85 82.42 115.75 82.24 115.69 82.02 115.6 81.81 115.5 81.63 115.44 81.4 115.36 81.19 115.25 81.01 115.19 80.79 115.11 80.58 115 80.4 114.94 80.18 114.86 79.97 114.76 79.79 114.69 79.56 114.61 79.35 114.51 79.18 114.45 78.95 114.36 78.74 114.26 78.56 114.2 78.33 114.12 78.13 114.01 77.95 113.95 77.72 113.87 77.51 113.77 77.33 113.7 77.11 113.62 76.9 113.52 76.72 113.45 76.49 113.37 76.28 113.27 76.11 113.21 75.88 113.12 75.67 113.02 75.49 112.96 75.27 112.88 75.06 112.77 74.88 112.71 74.65 112.63 74.44 112.53 74.26 112.46 74.04 112.38 73.83 112.28 73.65 112.21 73.42 112.13 73.22 112.03 73.04 111.97 72.81 111.88 72.6 111.78 72.42 111.72 72.19 111.64 71.99 111.53 71.81 111.47 71.58 111.39 71.37 111.28 71.2 111.22 70.97 111.14 70.76 111.04 70.58 110.97 70.36 110.89 70.15 110.79 69.97 110.73 69.74 110.64 69.53 110.54 69.35 110.48 69.13 110.4 68.92 110.29 68.74 110.23 68.51 110.15 68.31 110.04 68.13 109.98 67.9 109.9 67.69 109.8 67.51 109.73 67.29 109.65 67.08 109.55 66.9 109.49 66.67 109.4 66.46 109.3 66.29 109.24 66.06 109.16 65.85 109.05 65.67 108.99 65.44 108.91 65.24 108.8 65.06 108.74 64.83 108.66 64.62 108.56 64.44 108.49 64.22 108.41 64.01 108.31 63.83 108.24 63.6 108.16 63.4 108.06 63.22 108 62.99 107.92 62.78 107.81 62.6 107.75 62.38 107.67 62.17 107.56 61.99 107.5 61.76 107.42 61.55 107.32 61.37 107.25 61.15 107.17 60.94 107.07 60.76 107 60.53 106.92 60.33 106.82 60.15 106.76 59.92 106.68 59.71 106.57 59.53 106.51 59.31 106.43 59.1 106.32 58.92 106.26 58.69 106.18 58.48 106.08 58.31 106.01 58.08 105.93 57.87 105.83 57.69 105.76 57.46 105.68 57.26 105.58 57.08 105.52 56.85 105.44 56.64 105.33 56.46 105.27 56.24 105.19 56.03 105.08 55.85 105.02 55.62 104.94 55.41 104.84 55.24 104.77 55.01 104.69 54.8 104.59 54.62 104.52 54.39 104.44 54.19 104.34 54.01 104.28 53.78 104.19 53.57 104.09 53.39 104.03 53.17 103.95 52.96 103.84 52.78 103.53 51.66 102.71 51.13 101.42 51.04 101.35 50.85 101.28 50.67 101.19 50.49 101.12 50.28 101.04 50.08 100.94 49.87 100.87 49.67 100.79 49.47 100.69 49.26 99.97 47.14 97.9 45.01 94 45.01 89 45.01 87 48.01 87 51.01L48.79 51.01C48.76 50.94 48.72 50.88 48.69 50.81 48.62 50.6 48.53 50.4 48.44 50.2 48.37 49.99 48.28 49.78 48.19 49.58 48.12 49.37 48.04 49.17 47.95 48.97 47.87 48.76 47.79 48.56 47.7 48.36 47.62 48.15 47.54 47.94 47.45 47.74 45.79 43.06 40.62 41 36 41 28 41 24 46.1 24 51L24 84C24 84.55 24.16 85.1 24.43 85.61 24.49 85.82 24.57 86.02 24.67 86.22 24.74 86.43 24.82 86.64 24.92 86.83 24.99 87.04 25.07 87.25 25.17 87.45 25.24 87.66 25.32 87.86 25.42 88.06 25.49 88.27 25.57 88.48 25.67 88.68 25.74 88.89 25.81 89.09 25.92 89.29 25.98 89.5 26.06 89.7 26.16 89.9 26.23 90.11 26.31 90.32 26.41 90.52 26.48 90.73 26.56 90.93 26.66 91.13 26.73 91.34 26.81 91.55 26.91 91.75 26.98 91.95 27.06 92.16 27.16 92.36 27.22 92.57 27.3 92.77 27.41 92.97 27.47 93.18 27.55 93.39 27.66 93.59 27.72 93.8 27.8 94 27.9 94.2 27.97 94.41 28.05 94.61 28.15 94.81 28.22 95.02 28.3 95.23 28.4 95.43 28.47 95.64 28.55 95.84 28.65 96.04 28.72 96.25 28.8 96.46 28.9 96.66 28.96 96.87 29.04 97.07 29.15 97.27 29.21 97.48 29.29 97.68 29.4 97.88 29.46 98.09 29.54 98.3 29.64 98.5 29.71 98.71 29.79 98.91 29.89 99.11 29.96 99.32 30.04 99.52 30.14 99.72 30.21 99.93 30.29 100.14 30.39 100.34 30.45 100.55 30.53 100.75 30.64 100.95 30.7 101.16 30.78 101.37 30.89 101.56 30.95 101.77 31.03 101.98 31.13 102.18 31.2 102.39 31.28 102.59 31.38 102.79 31.45 103 31.53 103.21 31.63 103.41 31.7 103.62 31.78 103.82 31.88 104.02 31.95 104.23 32.03 104.43 32.13 104.63 32.19 104.84 32.27 105.05 32.38 105.25 32.44 105.46 32.52 105.66 32.63 105.86 32.69 106.07 32.77 106.28 32.87 106.47 32.94 106.68 33.02 106.89 33.12 107.09 33.19 107.3 33.27 107.5 33.37 107.7 33.44 107.91 33.52 108.12 33.62 108.32 33.69 108.53 33.76 108.73 33.87 108.93 33.93 109.14 34.01 109.34 34.12 109.54 34.18 109.75 34.26 109.96 34.36 110.16 34.43 110.37 34.51 110.57 34.61 110.77 34.68 110.98 34.76 111.19 34.86 111.39 34.93 111.59 35.01 111.8 35.11 112 35.17 112.21 35.26 112.41 35.36 112.61 35.42 112.82 35.5 113.03 35.61 113.22 35.67 113.44 35.75 113.64 35.86 113.84 35.92 114.05 36 114.26 36.1 114.45 36.17 114.66 36.25 114.87 36.35 115.07 36.42 115.28 36.5 115.48 36.6 115.68 36.67 115.89 36.75 116.1 36.85 116.3 36.92 116.5 36.99 116.71 37.1 116.91 37.16 117.12 37.24 117.32 37.35 117.52 37.41 117.73 37.49 117.94 37.59 118.13 37.66 118.35 37.74 118.55 37.84 118.75 37.91 118.96 37.99 119.16 38.09 119.36 38.16 119.57 38.24 119.78 38.34 119.98 38.41 120.19 38.49 120.39 38.59 120.59 38.65 120.8 38.73 121 38.84 121.2 38.9 121.41 38.98 121.62 39.09 121.82 39.15 122.03 39.23 122.23 39.33 122.43 39.4 122.64 39.48 122.85 39.58 123.05 39.59 123.08 39.61 123.12 39.63 123.15 47.12 126.28 55.36 128 64 128 88.49 128 109.75 114.24 120.52 94.04L120.52 94.04Z" fill="#233540"/><path d="M91.5 70.25C90.12 70.25 89 69.13 89 67.75L89 62.75C89 61.37 90.12 60.25 91.5 60.25 92.88 60.25 94 61.37 94 62.75L94 67.75C94 69.13 92.88 70.25 91.5 70.25L91.5 70.25Z" fill="#E6E6E6"/><path d="M83.5 77.75C82.12 77.75 81 76.63 81 75.25L81 70.25C81 68.87 82.12 67.75 83.5 67.75 84.88 67.75 86 68.87 86 70.25L86 75.25C86 76.63 84.88 77.75 83.5 77.75L83.5 77.75Z" fill="#E6E6E6"/><path d="M24 51C24 46.1 28 41 36 41 41.58 41 48 44 48 51L87 51C87 48 89 45 94 45 99 45 101 48.5 101 51 103 51 104 51.87 104 54.03 104 61.53 98.79 66 92 66L61 66 54 73 86.5 73C92.93 73 99 79.07 99 85.5 99 86.88 97.88 88 96.5 88L28 88C26 88 24 86 24 84L24 51 24 51Z" fill="#48B3A0"/><g transform="translate(34.000000, 41.000000)" fill="#3E9989"><path d="M11 10L14 10C14 3 7.58 0 2 0 1.46 0 0.94 0.03 0.43 0.07 5.62 0.54 11 3.59 11 10L11 10Z"/><polygon points="17 32 20 32 27 25 24 25"/><path d="M67 10C67 7.5 65 4 60 4 59.44 4 58.92 4.04 58.44 4.11 62.38 4.72 64 7.76 64 10 66 10 67 10.87 67 13.03 67 20.53 61.79 25 55 25L58 25C64.79 25 70 20.53 70 13.03 70 10.87 69 10 67 10L67 10Z"/><path d="M52.5 32L49.5 32C55.93 32 62 38.07 62 44.5 62 45.88 60.88 47 59.5 47L62.5 47C63.88 47 65 45.88 65 44.5 65 38.07 58.93 32 52.5 32L52.5 32Z"/></g><circle fill="#E6E6E6" cx="36" cy="53" r="5"/><circle fill="#263740" cx="36" cy="53" r="3"/><circle fill="#3E9989" cx="94" cy="53" r="3"/><path d="M174.72 69.53L175.15 69.24C176.78 68.28 177.94 67.8 178.61 67.8 180.1 67.8 181.7 69.14 183.43 71.83 184.49 73.51 185.02 74.88 185.02 75.94 185.02 76.9 184.69 77.71 184.04 78.38 183.4 79.06 182.42 79.78 181.13 80.54 180.7 80.83 180.08 81.22 179.29 81.7 178.5 82.18 176.88 82.8 174.43 83.57 171.98 84.34 169.54 84.72 167.09 84.72 164.98 84.72 162.76 84.42 160.43 83.82 158.1 83.22 155.7 82.21 153.23 80.8 150.76 79.38 148.54 77.65 146.57 75.61 144.6 73.57 142.98 70.96 141.71 67.76 140.44 64.57 139.8 61.08 139.8 57.29 139.8 53.59 140.42 50.22 141.67 47.17 142.92 44.12 144.52 41.6 146.46 39.61 148.4 37.62 150.62 35.94 153.12 34.57 155.62 33.2 158.05 32.22 160.43 31.62 162.8 31.02 165.1 30.72 167.3 30.72 169.56 30.72 171.85 31.07 174.18 31.76 176.51 32.46 178.27 33.17 179.47 33.89L181.2 34.9C182.06 35.42 182.72 35.87 183.18 36.23 183.64 36.59 184.07 37.08 184.48 37.7 184.88 38.33 185.09 39 185.09 39.72 185.09 40.92 184.58 42.22 183.58 43.61 181.7 46.2 180.02 47.5 178.54 47.5 177.67 47.5 176.45 46.97 174.86 45.91 172.85 44.28 170.16 43.46 166.8 43.46 165.31 43.46 163.78 43.74 162.19 44.29 160.61 44.84 159.08 45.65 157.62 46.7 156.16 47.76 154.94 49.25 153.98 51.17 153.02 53.09 152.54 55.25 152.54 57.65 152.54 60.1 153.02 62.28 153.98 64.2 154.94 66.12 156.17 67.62 157.66 68.7 159.14 69.78 160.68 70.58 162.26 71.11 163.85 71.64 165.36 71.9 166.8 71.9 168.29 71.9 169.69 71.71 171.01 71.33 172.33 70.94 173.28 70.56 173.86 70.18L174.72 69.53ZM208.42 45.19C213.7 45.19 218.33 47.05 222.31 50.77 226.3 54.49 228.29 59.23 228.29 64.99 228.29 68.98 227.26 72.52 225.19 75.61 223.13 78.71 220.62 80.99 217.67 82.45 214.72 83.92 211.68 84.65 208.56 84.65 205.34 84.65 202.25 83.87 199.27 82.31 196.3 80.75 193.79 78.44 191.75 75.4 189.71 72.35 188.69 68.9 188.69 65.06 188.69 59.3 190.7 54.55 194.74 50.81 198.77 47.06 203.33 45.19 208.42 45.19L208.42 45.19ZM208.42 71.98C210 71.98 211.58 71.38 213.17 70.18 214.75 68.98 215.54 67.2 215.54 64.85 215.54 62.5 214.8 60.74 213.31 59.59 211.82 58.44 210.17 57.86 208.34 57.86 206.71 57.86 205.15 58.46 203.66 59.66 202.18 60.86 201.43 62.62 201.43 64.92 201.43 67.27 202.2 69.04 203.74 70.21 205.27 71.39 206.83 71.98 208.42 71.98L208.42 71.98ZM255 70.32C256.58 69.31 257.78 68.81 258.6 68.81 260.04 68.81 261.79 70.08 263.86 72.62 264.96 74.02 265.51 75.26 265.51 76.37 265.51 78.19 264.19 79.9 261.55 81.48 258.82 83.4 255.46 84.36 251.47 84.36 249.31 84.36 247.12 83.94 244.88 83.1 242.65 82.26 240.55 81.07 238.58 79.54 236.62 78 235.01 75.95 233.76 73.38 232.51 70.81 231.89 67.97 231.89 64.85 231.89 61.78 232.51 58.98 233.76 56.46 235.01 53.94 236.6 51.91 238.55 50.38 240.49 48.84 242.58 47.66 244.81 46.85 247.04 46.03 249.22 45.62 251.33 45.62 253.15 45.62 254.93 45.88 256.66 46.38 258.38 46.88 259.66 47.38 260.47 47.86L261.62 48.58C262.49 49.15 263.15 49.61 263.6 49.94 264.06 50.28 264.49 50.75 264.9 51.35 265.31 51.95 265.51 52.61 265.51 53.33 265.51 54.48 265.01 55.82 264 57.36 262.27 60 260.62 61.32 259.03 61.32 258.12 61.32 256.82 60.79 255.14 59.74 254.28 58.92 253.01 58.51 251.33 58.51 249.79 58.51 248.33 59.09 246.94 60.24 245.54 61.39 244.85 62.98 244.85 64.99 244.85 67.06 245.52 68.65 246.86 69.78 248.21 70.91 249.65 71.47 251.18 71.47 251.95 71.47 252.65 71.38 253.27 71.18 253.9 70.99 254.33 70.8 254.57 70.61L255 70.32ZM288.84 45.19C294.12 45.19 298.75 47.05 302.74 50.77 306.72 54.49 308.71 59.23 308.71 64.99 308.71 68.98 307.68 72.52 305.62 75.61 303.55 78.71 301.04 80.99 298.09 82.45 295.14 83.92 292.1 84.65 288.98 84.65 285.77 84.65 282.67 83.87 279.7 82.31 276.72 80.75 274.21 78.44 272.17 75.4 270.13 72.35 269.11 68.9 269.11 65.06 269.11 59.3 271.13 54.55 275.16 50.81 279.19 47.06 283.75 45.19 288.84 45.19L288.84 45.19ZM288.84 71.98C290.42 71.98 292.01 71.38 293.59 70.18 295.18 68.98 295.97 67.2 295.97 64.85 295.97 62.5 295.22 60.74 293.74 59.59 292.25 58.44 290.59 57.86 288.77 57.86 287.14 57.86 285.58 58.46 284.09 59.66 282.6 60.86 281.86 62.62 281.86 64.92 281.86 67.27 282.62 69.04 284.16 70.21 285.7 71.39 287.26 71.98 288.84 71.98L288.84 71.98ZM313.39 34.54C313.39 33.43 313.43 32.6 313.5 32.05 313.57 31.5 313.79 30.86 314.15 30.14 314.51 29.42 315.14 28.92 316.06 28.63 316.97 28.34 318.19 28.2 319.73 28.2 321.22 28.2 322.4 28.36 323.29 28.67 324.18 28.98 324.82 29.48 325.2 30.18 325.58 30.88 325.81 31.51 325.88 32.09 325.96 32.66 325.99 33.5 325.99 34.61L325.99 67.94C325.99 69.67 326.14 70.76 326.42 71.22 326.71 71.68 327.5 71.9 328.8 71.9 329.47 71.9 329.98 71.94 330.31 72.01 330.65 72.08 331.07 72.29 331.57 72.62 332.08 72.96 332.44 73.55 332.65 74.39 332.87 75.23 332.98 76.34 332.98 77.74 332.98 79.22 332.87 80.42 332.65 81.34 332.44 82.25 332.08 82.88 331.57 83.24 331.07 83.6 330.64 83.82 330.28 83.89 329.92 83.96 329.4 84 328.73 84 326.18 84 324.14 83.9 322.61 83.71 321.07 83.52 319.64 83.15 318.32 82.6 317 82.04 316.02 81.19 315.37 80.04 314.72 78.89 314.23 77.42 313.9 75.65 313.56 73.87 313.39 71.59 313.39 68.81L313.39 34.54ZM350.9 84.65C346.06 84.65 341.5 83.3 337.22 80.62 336.31 80.04 335.86 79.2 335.86 78.1 335.86 76.7 336.77 74.74 338.59 72.19 339.12 71.38 339.94 70.97 341.04 70.97 342.29 70.97 343.75 71.47 345.43 72.48 347.78 73.82 349.78 74.5 351.41 74.5 354.34 74.5 355.8 73.92 355.8 72.77 355.8 72.29 355.34 71.88 354.43 71.54 353.52 71.21 352.37 70.94 350.98 70.75 349.58 70.56 348.08 70.16 346.48 69.56 344.87 68.96 343.37 68.23 341.98 67.37 340.58 66.5 339.43 65.15 338.52 63.3 337.61 61.45 337.15 59.26 337.15 56.71 337.15 49.13 342.36 45.34 352.78 45.34 356.18 45.34 359.69 46.15 363.29 47.78 364.97 48.55 365.81 49.61 365.81 50.95 365.81 51.91 365.3 53.21 364.3 54.84 363.19 56.57 362.09 57.43 360.98 57.43 360.41 57.43 359.59 57.19 358.54 56.71 356.47 55.75 354.53 55.27 352.7 55.27 349.87 55.27 348.46 55.8 348.46 56.86 348.46 57.62 348.92 58.24 349.86 58.69 350.8 59.15 351.97 59.46 353.39 59.63 354.8 59.8 356.33 60.12 357.96 60.6 359.59 61.08 361.12 61.67 362.53 62.36 363.95 63.06 365.12 64.24 366.06 65.89 367 67.55 367.46 69.58 367.46 71.98 367.46 74.57 367 76.74 366.06 78.49 365.12 80.24 363.8 81.54 362.1 82.38 360.4 83.22 358.67 83.81 356.92 84.14 355.16 84.48 353.16 84.65 350.9 84.65L350.9 84.65ZM372.14 52.39C372.14 51.29 372.18 50.46 372.25 49.91 372.32 49.36 372.54 48.73 372.9 48.04 373.26 47.34 373.9 46.85 374.81 46.56 375.72 46.27 376.94 46.13 378.48 46.13 379.68 46.13 380.7 46.25 381.54 46.49 382.38 46.73 383 47.02 383.41 47.35 383.82 47.69 384.13 48.18 384.35 48.83 384.56 49.48 384.68 50.03 384.71 50.48 384.73 50.94 384.74 51.62 384.74 52.54L384.74 77.74C384.74 78.84 384.71 79.67 384.64 80.22 384.56 80.77 384.35 81.4 383.99 82.09 383.63 82.79 382.99 83.28 382.08 83.57 381.17 83.86 379.94 84 378.41 84 376.92 84 375.72 83.86 374.81 83.57 373.9 83.28 373.26 82.78 372.9 82.06 372.54 81.34 372.32 80.71 372.25 80.18 372.18 79.66 372.14 78.82 372.14 77.66L372.14 52.39ZM378.41 40.94C376.92 40.94 375.72 40.8 374.81 40.51 373.9 40.22 373.26 39.72 372.9 39 372.54 38.28 372.32 37.64 372.25 37.09 372.18 36.54 372.14 35.71 372.14 34.61 372.14 33.5 372.18 32.68 372.25 32.12 372.32 31.57 372.54 30.95 372.9 30.25 373.26 29.56 373.9 29.06 374.81 28.78 375.72 28.49 376.94 28.34 378.48 28.34 379.97 28.34 381.17 28.49 382.08 28.78 382.99 29.06 383.63 29.57 383.99 30.29 384.35 31.01 384.56 31.64 384.64 32.2 384.71 32.75 384.74 33.58 384.74 34.68 384.74 35.78 384.71 36.61 384.64 37.16 384.56 37.72 384.35 38.34 383.99 39.04 383.63 39.73 382.99 40.22 382.08 40.51 381.17 40.8 379.94 40.94 378.41 40.94L378.41 40.94ZM403.75 71.26C405.34 71.26 406.51 71.66 407.28 72.48 408.05 73.3 408.43 75 408.43 77.59 408.43 80.09 408.02 81.76 407.21 82.6 406.39 83.44 405.22 83.86 403.68 83.86 398.83 83.86 395.42 82.69 393.46 80.36 391.49 78.04 390.5 74.16 390.5 68.74L390.5 34.39C390.5 33.29 390.54 32.46 390.61 31.91 390.68 31.36 390.9 30.73 391.26 30.04 391.62 29.34 392.26 28.85 393.17 28.56 394.08 28.27 395.3 28.13 396.84 28.13 398.33 28.13 399.52 28.28 400.4 28.6 401.29 28.91 401.93 29.41 402.31 30.11 402.7 30.8 402.92 31.43 403 31.98 403.07 32.53 403.1 33.36 403.1 34.46L403.1 69.02C403.1 70.51 403.32 71.26 403.75 71.26L403.75 71.26ZM425.35 71.26C427.42 71.26 428.98 71.66 430.03 72.48 431.09 73.3 431.62 75 431.62 77.59 431.62 80.09 431.05 81.76 429.92 82.6 428.8 83.44 427.22 83.86 425.21 83.86 415.03 83.86 409.94 78.82 409.94 68.74L409.87 34.39C409.87 33.29 409.91 32.46 409.98 31.91 410.05 31.36 410.28 30.73 410.66 30.04 411.05 29.34 411.7 28.85 412.61 28.56 413.52 28.27 414.74 28.13 416.28 28.13 417.77 28.13 418.96 28.28 419.84 28.6 420.73 28.91 421.36 29.41 421.72 30.11 422.08 30.8 422.3 31.44 422.4 32.02 422.5 32.59 422.54 33.41 422.54 34.46L422.54 69.02C422.54 69.94 422.74 70.54 423.12 70.82 423.5 71.11 424.25 71.26 425.35 71.26L425.35 71.26ZM454.22 45.19C459.5 45.19 464.14 47.05 468.12 50.77 472.1 54.49 474.1 59.23 474.1 64.99 474.1 68.98 473.06 72.52 471 75.61 468.94 78.71 466.43 80.99 463.48 82.45 460.52 83.92 457.49 84.65 454.37 84.65 451.15 84.65 448.06 83.87 445.08 82.31 442.1 80.75 439.6 78.44 437.56 75.4 435.52 72.35 434.5 68.9 434.5 65.06 434.5 59.3 436.51 54.55 440.54 50.81 444.58 47.06 449.14 45.19 454.22 45.19L454.22 45.19ZM454.22 71.98C455.81 71.98 457.39 71.38 458.98 70.18 460.56 68.98 461.35 67.2 461.35 64.85 461.35 62.5 460.61 60.74 459.12 59.59 457.63 58.44 455.98 57.86 454.15 57.86 452.52 57.86 450.96 58.46 449.47 59.66 447.98 60.86 447.24 62.62 447.24 64.92 447.24 67.27 448.01 69.04 449.54 70.21 451.08 71.39 452.64 71.98 454.22 71.98L454.22 71.98Z" fill="#233540"/></g></svg>
